# This file uses centimeters as units for non-parametric coordinates.

mtllib tapaMaquina.mtl
g default
v 0.017338 0.004387 1.574814
v 2.310220 -0.000904 1.574814
v 0.017338 0.004387 -1.553240
v 2.310220 -0.000904 -1.553240
v 0.017569 0.104387 1.574814
v 2.310451 0.099096 1.574814
v 2.310451 0.099096 -1.553240
v 0.017569 0.104387 -1.553240
vt 0.375000 0.250000
vt 0.625000 0.250000
vt 0.375000 0.500000
vt 0.625000 0.500000
vt 0.375000 0.250000
vt 0.625000 0.250000
vt 0.625000 0.500000
vt 0.375000 0.500000
vt 0.375000 0.250000
vt 0.625000 0.250000
vt 0.625000 0.500000
vt 0.375000 0.500000
vn 0.002308 0.999997 0.000000
vn 0.002308 0.999997 0.000000
vn 0.002308 0.999997 0.000000
vn 0.002308 0.999997 0.000000
vn -0.002308 -0.999997 0.000000
vn -0.002308 -0.999997 0.000000
vn -0.002308 -0.999997 0.000000
vn -0.002308 -0.999997 0.000000
vn 0.000000 0.000000 1.000000
vn -0.000000 0.000000 1.000000
vn -0.000000 0.000000 1.000000
vn -0.000000 0.000000 1.000000
vn 0.999997 -0.002308 0.000000
vn 0.999997 -0.002308 0.000000
vn 0.999997 -0.002308 0.000000
vn 0.999997 -0.002308 0.000000
vn 0.000000 0.000000 -1.000000
vn 0.000000 0.000000 -1.000000
vn 0.000000 0.000000 -1.000000
vn 0.000000 0.000000 -1.000000
vn -0.999997 0.002308 0.000000
vn -0.999997 0.002308 0.000000
vn -0.999997 0.002308 0.000000
vn -0.999997 0.002308 0.000000
s 1
g pCube5
usemtl phong1SG
f 5/9/1 6/10/2 8/12/3
f 8/12/3 6/10/2 7/11/4
s 2
f 1/5/5 3/8/6 2/6/7
f 2/6/7 3/8/6 4/7/8
s 3
f 1/1/9 2/2/10 5/9/11
f 5/9/11 2/2/10 6/10/12
s 4
f 2/2/13 4/4/14 6/10/15
f 6/10/15 4/4/14 7/11/16
s 5
f 4/4/17 3/3/18 7/11/19
f 7/11/19 3/3/18 8/12/20
s 6
f 3/3/21 1/1/22 8/12/23
f 8/12/23 1/1/22 5/9/24
